<?xml version="1.0" encoding="UTF-8" standalone="no"?>
<!DOCTYPE svg PUBLIC "-//W3C//DTD SVG 1.1//EN"
 "http://www.w3.org/Graphics/SVG/1.1/DTD/svg11.dtd">
<!-- Generated by graphviz version 7.1.0 (20230121.1956)
 -->
<!-- Title: G Pages: 1 -->
<svg width="392pt" height="288pt"
 viewBox="0.00 0.00 392.35 288.41" xmlns="http://www.w3.org/2000/svg" xmlns:xlink="http://www.w3.org/1999/xlink">
<g id="graph0" class="graph" transform="scale(1 1) rotate(0) translate(4 284.41)">
<title>G</title><style>.edge>path:hover{stroke-width:8}</style>
<polygon fill="white" stroke="none" points="-4,4 -4,-284.41 388.35,-284.41 388.35,4 -4,4"/>
<!-- be_data -->
<g id="node1" class="node">
<title>be_data</title><style>.edge>path:hover{stroke-width:8}</style>
<ellipse fill="#b65353" stroke="black" cx="30.02" cy="-90" rx="30.04" ry="18"/>
<text text-anchor="middle" x="30.02" y="-87.5" font-family="Helvetica,sans-Serif" font-size="10.00" fill="#ffffff">be_data</text>
</g>
<!-- script -->
<g id="node9" class="node">
<title>script</title><style>.edge>path:hover{stroke-width:8}</style>
<ellipse fill="#5c3781" stroke="black" cx="146.02" cy="-18" rx="27" ry="18"/>
<text text-anchor="middle" x="146.02" y="-15.5" font-family="Helvetica,sans-Serif" font-size="10.00" fill="#ffffff">script</text>
</g>
<!-- be_data&#45;&gt;script -->
<g id="edge1" class="edge">
<title>be_data&#45;&gt;script</title><style>.edge>path:hover{stroke-width:8}</style>
<path fill="none" stroke="black" d="M50.76,-76.49C69.16,-65.38 96.23,-49.05 116.81,-36.63"/>
<polygon fill="#b65353" stroke="black" points="118.57,-39.65 125.32,-31.49 114.95,-33.66 118.57,-39.65"/>
</g>
<!-- dotenv -->
<g id="node2" class="node">
<title>dotenv</title><style>.edge>path:hover{stroke-width:8}</style>
<ellipse fill="#85b653" stroke="black" cx="105.02" cy="-90" rx="27.16" ry="18"/>
<text text-anchor="middle" x="105.02" y="-87.5" font-family="Helvetica,sans-Serif" font-size="10.00" fill="#000000">dotenv</text>
</g>
<!-- dotenv&#45;&gt;script -->
<g id="edge2" class="edge">
<title>dotenv&#45;&gt;script</title><style>.edge>path:hover{stroke-width:8}</style>
<path fill="none" stroke="black" d="M114.53,-72.76C119.4,-64.46 125.43,-54.15 130.91,-44.79"/>
<polygon fill="#85b653" stroke="black" points="133.77,-46.85 135.8,-36.45 127.72,-43.31 133.77,-46.85"/>
</g>
<!-- mitmproxy -->
<g id="node3" class="node">
<title>mitmproxy</title><style>.edge>path:hover{stroke-width:8}</style>
<ellipse fill="#22e7e7" stroke="black" cx="187.02" cy="-90" rx="36.49" ry="18"/>
<text text-anchor="middle" x="187.02" y="-87.5" font-family="Helvetica,sans-Serif" font-size="10.00" fill="#000000">mitmproxy</text>
</g>
<!-- mitmproxy&#45;&gt;script -->
<g id="edge3" class="edge">
<title>mitmproxy&#45;&gt;script</title><style>.edge>path:hover{stroke-width:8}</style>
<path fill="none" stroke="black" d="M177.31,-72.41C172.49,-64.19 166.56,-54.06 161.16,-44.85"/>
<polygon fill="#22e7e7" stroke="black" points="164.23,-43.15 156.15,-36.29 158.19,-46.69 164.23,-43.15"/>
</g>
<!-- mitmproxy_ctx -->
<g id="node4" class="node">
<title>mitmproxy_ctx</title><style>.edge>path:hover{stroke-width:8}</style>
<ellipse fill="#4cb3b3" stroke="black" cx="66.02" cy="-165.21" rx="45.15" ry="18"/>
<text text-anchor="middle" x="66.02" y="-162.71" font-family="Helvetica,sans-Serif" font-size="10.00" fill="#000000">mitmproxy.ctx</text>
</g>
<!-- mitmproxy_ctx&#45;&gt;script -->
<g id="edge4" class="edge">
<title>mitmproxy_ctx&#45;&gt;script</title><style>.edge>path:hover{stroke-width:8}</style>
<path fill="none" stroke="black" d="M97.91,-151.99C105.16,-149.29 112.84,-146.5 120.02,-144 179.35,-123.38 277.24,-148.07 251.02,-91"/>
<path fill="none" stroke="black" d="M251.02,-89C237.8,-60.21 206.01,-41.61 180.85,-30.87"/>
<polygon fill="#4cb3b3" stroke="black" points="182.19,-27.64 171.61,-27.18 179.59,-34.14 182.19,-27.64"/>
</g>
<!-- mitmproxy_flow -->
<g id="node5" class="node">
<title>mitmproxy_flow</title><style>.edge>path:hover{stroke-width:8}</style>
<ellipse fill="#40bfc0" stroke="black" cx="194.02" cy="-251.42" rx="48.04" ry="18"/>
<text text-anchor="middle" x="194.02" y="-248.92" font-family="Helvetica,sans-Serif" font-size="10.00" fill="#000000">mitmproxy.flow</text>
</g>
<!-- mitmproxy_http -->
<g id="node6" class="node">
<title>mitmproxy_http</title><style>.edge>path:hover{stroke-width:8}</style>
<ellipse fill="#49acac" stroke="black" cx="176.02" cy="-165.21" rx="47.19" ry="18"/>
<text text-anchor="middle" x="176.02" y="-162.71" font-family="Helvetica,sans-Serif" font-size="10.00" fill="#000000">mitmproxy.http</text>
</g>
<!-- mitmproxy_flow&#45;&gt;mitmproxy_http -->
<g id="edge5" class="edge">
<title>mitmproxy_flow&#45;&gt;mitmproxy_http</title><style>.edge>path:hover{stroke-width:8}</style>
<path fill="none" stroke="black" d="M190.38,-233.38C188,-222.27 184.85,-207.49 182.1,-194.63"/>
<polygon fill="#40bfc0" stroke="black" points="185.55,-194.04 180.04,-185 178.7,-195.51 185.55,-194.04"/>
</g>
<!-- mitmproxy_flow&#45;&gt;script -->
<g id="edge6" class="edge">
<title>mitmproxy_flow&#45;&gt;script</title><style>.edge>path:hover{stroke-width:8}</style>
<path fill="none" stroke="black" d="M208.08,-234.21C231.64,-204.98 274.33,-141.75 251.02,-91"/>
</g>
<!-- mitmproxy_http&#45;&gt;script -->
<g id="edge7" class="edge">
<title>mitmproxy_http&#45;&gt;script</title><style>.edge>path:hover{stroke-width:8}</style>
<path fill="none" stroke="black" d="M206.84,-151.23C232.43,-138.34 262.87,-116.8 251.02,-91"/>
</g>
<!-- mitmproxy_script -->
<g id="node7" class="node">
<title>mitmproxy_script</title><style>.edge>path:hover{stroke-width:8}</style>
<ellipse fill="#4cb3b3" stroke="black" cx="324.02" cy="-165.21" rx="45.01" ry="21.43"/>
<text text-anchor="middle" x="324.02" y="-168.21" font-family="Helvetica,sans-Serif" font-size="10.00" fill="#000000">mitmproxy.</text>
<text text-anchor="middle" x="324.02" y="-157.21" font-family="Helvetica,sans-Serif" font-size="10.00" fill="#000000">script</text>
</g>
<!-- mitmproxy_script&#45;&gt;script -->
<g id="edge8" class="edge">
<title>mitmproxy_script&#45;&gt;script</title><style>.edge>path:hover{stroke-width:8}</style>
<path fill="none" stroke="black" d="M299.46,-147.09C282.66,-133.87 261.59,-114 251.02,-91"/>
</g>
<!-- mitmproxy_script_concurrent -->
<g id="node8" class="node">
<title>mitmproxy_script_concurrent</title><style>.edge>path:hover{stroke-width:8}</style>
<ellipse fill="#40bfc0" stroke="black" cx="324.02" cy="-251.42" rx="45.01" ry="28.98"/>
<text text-anchor="middle" x="324.02" y="-259.92" font-family="Helvetica,sans-Serif" font-size="10.00" fill="#000000">mitmproxy.</text>
<text text-anchor="middle" x="324.02" y="-248.92" font-family="Helvetica,sans-Serif" font-size="10.00" fill="#000000">script.</text>
<text text-anchor="middle" x="324.02" y="-237.92" font-family="Helvetica,sans-Serif" font-size="10.00" fill="#000000">concurrent</text>
</g>
<!-- mitmproxy_script_concurrent&#45;&gt;mitmproxy_script -->
<g id="edge9" class="edge">
<title>mitmproxy_script_concurrent&#45;&gt;mitmproxy_script</title><style>.edge>path:hover{stroke-width:8}</style>
<path fill="none" stroke="black" d="M324.02,-222.38C324.02,-214.69 324.02,-206.3 324.02,-198.39"/>
<polygon fill="#40bfc0" stroke="black" points="327.52,-198.45 324.02,-188.45 320.52,-198.45 327.52,-198.45"/>
</g>
<!-- mitmproxy_script_concurrent&#45;&gt;script -->
<g id="edge10" class="edge">
<title>mitmproxy_script_concurrent&#45;&gt;script</title><style>.edge>path:hover{stroke-width:8}</style>
<path fill="none" stroke="black" d="M349.68,-227.55C371.35,-205.39 396.17,-171.24 378.02,-144 344.11,-93.1 276.26,-146.71 251.02,-91"/>
</g>
</g>
</svg>
